<svg xmlns="http://www.w3.org/2000/svg" width="485.217" height="101.521" viewBox="-207.849 -178.879 485.217 101.521"><path fill="#D8EDDD" d="M-204.57-149.927l8.296-5.736c9 5.47 15.707-.53 13.678-9.09l16.766-11.118 17.825 10.677c-3.706 11.207 7.854 14.825 14.03 8.648l9.002 6.266c-7.324 6.972-4.147 17.473-4.853 39.446-.53 11.384-6.09 17.825-13.325 22.414-8.03 4.412-15.62 3.795-21.71 8.207-9.882-5.295-16.765-5.03-25.325-10.854-5.206-3.794-9.883-9.442-10.942-20.914-.177-18.18 3-33.976-3.442-37.947zm4.942.882c4.236 2.648 1.853 18.09 1.5 35.474 1.5 10.5 4.942 16.765 9.707 20.206 7.764 5.295 14.294 4.677 23.295 9.442 6.442-3.706 12.707-3.618 20.03-7.677 6.62-4.235 11.385-10.324 11.826-20.824.354-19.414-4.058-30.974 2.648-37.328l-3.53-2.47c-8.383 5.206-20.65-.62-17.56-10.855l-14.208-8.824-12.972 8.294c2.824 9.354-7.06 16.325-17.03 11.472l-3.706 3.09z"/><path fill="#D8EDDD" d="M-147.476-138.456h-3.353v-.706h3.354v.706zm-31.944 0h-3.353v-.706h3.353v.706zm28.63.644l3.338.308-.064.703-3.34-.308.065-.704zm-.206 1.262l3.298.613-.13.695-3.295-.613.127-.695zm-.306 1.356l3.226.914-.194.68-3.225-.915.193-.68zm-.43 1.19l3.043 1.177-.252.657-3.044-1.177.253-.658zm-.528 1.213l2.92 1.457-.313.632-2.92-1.457.313-.634zm-.722 1.2l2.77 1.727-.372.6-2.77-1.727.372-.6zm-.83 1.013l2.595 1.984-.43.56-2.594-1.982.43-.562zm-.834 1.015l2.39 2.224-.48.517-2.39-2.225.48-.517zm-1.07.954l2.104 2.38-.53.467-2.102-2.38.53-.468zm-1.096.818l1.857 2.577-.574.415-1.856-2.578.574-.414zm-1.13.68l1.59 2.75-.61.354-1.59-2.75.61-.354zm-1.23.585l1.303 2.896-.643.292-1.303-2.898.643-.29zm-1.33.454l1.003 3.013-.67.223-1-3.014.668-.223zm-1.325.364l.686 3.1-.69.153-.687-3.1.69-.153zm-1.405.28l.364 3.156-.7.08-.364-3.156.7-.08zm-1.393.083l.035 3.175-.706.008-.035-3.177.705-.006zm-2.03-.076l.704.066-.294 3.164-.7-.065.29-3.164zm-1.422-.186l.693.137-.62 3.118-.693-.138.62-3.116zm-1.333-.346l.674.21-.935 3.034-.677-.208.937-3.036zm-1.344-.432l.65.277-1.24 2.925-.65-.276 1.24-2.926zm-1.252-.575l.618.342-1.528 2.784-.62-.34 1.53-2.785zm-1.145-.71l.58.4-1.803 2.617-.58-.4 1.802-2.616zm-1.146-.842l.538.456-2.053 2.425-.54-.457 2.054-2.425zm-1.012-.868l.492.507-2.345 2.272-.49-.508 2.342-2.272zm-.94-.963l.44.55-2.553 2.037-.44-.552 2.553-2.035zm-.858-1.062l.385.59-2.737 1.783-.386-.59 2.737-1.783zm-.714-1.1l.326.625-2.892 1.514-.326-.627 2.892-1.513zm-.594-1.21l.266.654-3.02 1.236-.268-.653 3.022-1.237zm-.426-1.226l.207.675-3.208.976-.207-.674 3.207-.977zm-.353-1.31l.14.692-3.282.677-.143-.692 3.285-.677zm-.15-1.314l.08.702-3.333.37-.08-.7 3.334-.372z"/><path fill="#265C44" d="M-196.098-136.073c8.03-1.5 15.62-4.5 23.12-8.648l-1.588-2.118-2.824-3.883c-6 3.705-12.266 6-18.796 6.264l2.294 4.324-2.206 4.06zm21.532-10.854l-2.824-3.883h.088l-.882-1.853c7.148-5.47 18.178-4.942 25.06-.44l-.97 1.588h.088c6.795 4.324 13.5 6.706 20.03 7.324l-3.44 3.265 2.03 4.324c-7.325-.884-14.914-3.796-22.768-8.208l1.147-1.853-.088-.09 3-4.852-3 4.853c-5.382-3.97-11.736-5.295-17.47-.177z"/><path fill="#D8EDDD" d="M-196.804-135.544l2.47-4.59-2.47-4.676h.618c6-.265 12.09-2.294 18.178-6l.088-.088-.882-1.765.265-.176c7.59-5.823 18.972-4.764 25.502-.44l.353.176-.97 1.59c6.617 4.146 13.235 6.53 19.59 7.058l.882.088-3.883 3.618 2.206 4.765-.706-.088c-7.06-.883-14.825-3.707-22.943-8.207l-.353-.176 1.236-1.853c-3.44-2.647-9.883-6-16.413-.44l1.677 2.206-.44.265c-8.03 4.5-15.62 7.326-23.21 8.737h-.794zm1.236-8.56l2.03 3.97-1.853 3.443c7.147-1.413 14.206-4.148 21.707-8.296l-.97-1.323-.53-.617-2.383-3.265c-6 3.618-12.002 5.735-18.002 6.088zm37.856-.706c7.59 4.236 14.825 6.883 21.53 7.854l-1.852-3.97 3-2.825c-6.177-.707-12.53-3.09-18.972-7.15l-2.647 4.237.088.088-1.147 1.765zm-8.736-5.823c3 0 6.09 1.147 9.177 3.53l2.558-4.147.97-1.59c-6.264-3.97-16.765-4.852-24 .442l.88 1.765 2.384 3.265c2.47-2.207 5.206-3.265 8.03-3.265z"/><path fill="#D8EDDD" d="M-175.537-152.31l1.06-.44c.264-.09.528-.177.617-.177.177 0 .265 0 .44.088.177.09.266.177.354.354.088.177.088.265.088.44 0 .177 0 .266-.088.354.176 0 .353 0 .53.088.175.088.264.177.44.353.088.176.176.44.176.617s-.088.353-.265.44c-.088.09-.353.177-.706.354l-.883.353-1.764-2.823zm.794.265l.44.706.354-.176.354-.176.176-.176c0-.088 0-.176-.088-.265-.088-.088-.088-.177-.176-.177s-.177-.088-.177 0c-.09 0-.266.088-.53.177l-.353.088zm.706 1.147l.44.794.442-.176.353-.176c.088-.088.088-.088.088-.176s0-.176-.088-.265c-.088-.088-.088-.176-.177-.176-.087 0-.175-.088-.264-.088s-.265.087-.44.175l-.353.087zm2.912.353l2.118-.618-.176-.53-1.5.44-.353-.88 1.412-.442-.176-.53-1.5.44-.265-.705 1.5-.44-.176-.53-2.03.618 1.145 3.177zm2.56-.706l-.62-3.266 1.942-.265.088.528-1.324.265.178.794 1.235-.176.088.53-1.234.176.265 1.412h-.616zm2.47-1.854c0-.353.088-.706.265-.97.176-.266.353-.442.53-.53.175-.088.44-.176.705-.176.44 0 .706.176.97.53.266.264.354.705.354 1.235s-.177.97-.53 1.236c-.265.266-.618.354-.97.354-.442 0-.707-.177-.972-.44-.353-.267-.44-.71-.353-1.238zm.53 0c0 .353 0 .706.175.883.176.176.353.264.53.352.264 0 .44-.088.617-.265.177-.177.265-.44.265-.883 0-.353 0-.706-.176-.883-.176-.175-.353-.264-.53-.264-.264 0-.44.088-.617.265-.09.178-.177.443-.266.796zm2.558 1.94l1.147-3.088 1.147.353c.265.09.53.178.618.266.088.088.176.176.176.353s0 .352-.087.53c-.088.264-.265.44-.44.528-.177.088-.354.177-.62.177.09.088.177.265.177.353.088.088.088.353.176.618l.088.706-.706-.176-.176-.794c.088-.44.088-.618 0-.706 0-.088-.088-.177-.088-.177-.088 0-.176-.09-.265-.09h-.09l-.44 1.325-.617-.178zm1.236-1.676l.44.088c.265.088.44.088.53.088.087 0 .175 0 .175-.088.088-.088.088-.088.176-.265v-.265c0-.088-.087-.088-.087-.176-.088 0-.177-.088-.44-.176l-.442-.088-.35.882zm1.587 2.472l1.94.882.266-.53-1.412-.617.442-.794 1.324.618.265-.528-1.323-.618.353-.618 1.412.618.265-.53-1.94-.882-1.59 3zm-32.385 10.235l.618-.176c.176.354.44.53.794.442.176 0 .353-.088.44-.177.09-.088.09-.265.09-.353 0-.088-.09-.088-.09-.176-.087 0-.087-.088-.175-.088-.09 0-.266 0-.62-.088-.264 0-.44-.088-.617-.088-.176-.088-.265-.177-.353-.265-.088-.088-.176-.265-.176-.44v-.53c.088-.177.176-.266.265-.442l.528-.265c.353-.088.618-.088.883.088.266.088.442.353.53.618l-.618.177c-.088-.177-.176-.265-.265-.353-.088-.088-.265-.088-.44 0-.177 0-.266.088-.354.176-.088.088-.088.177-.088.265 0 .09.088.177.176.177.09 0 .266.088.62.088.352 0 .528.088.705.088.176.088.265.177.353.265.088.088.176.265.265.44.088.266 0 .53-.088.795-.176.265-.44.353-.883.44-.794.443-1.235.09-1.5-.616zm3.177.353l2.205-.618-.176-.53-1.678.442-.265-.883 1.5-.44-.176-.53-1.5.442-.176-.618 1.588-.44-.176-.53-2.206.617 1.06 3.09zm2.734-.793l-1.235-3.09 1.234-.44c.353-.088.53-.177.706-.177.176 0 .265.088.44.177.177.088.266.265.354.44.088.266.088.442 0 .62-.088.175-.265.352-.44.44.175 0 .264.088.44.176.088.088.265.176.53.353l.618.44-.706.442-.706-.53c-.265-.175-.44-.264-.53-.352-.087 0-.176-.088-.264-.088-.088 0-.177 0-.265.088h-.087l.53 1.324-.62.177zm-.088-1.942l.44-.176c.266-.09.442-.178.53-.178.09-.088.09-.088.09-.176v-.265c0-.087-.09-.176-.177-.176-.09-.088-.177-.088-.266-.088-.088 0-.265.088-.44.177l-.442.176.264.705zm3.706.618l.618-.265-.353-3.44-.618.264.352 2.47-1.765-1.94-.618.264 2.382 2.647zm1.853-.706l-1.5-3 .53-.265 1.5 3-.53.265zm2.295-2.47c.088.264.088.44 0 .617-.088.176-.176.265-.265.353-.177.088-.44.088-.618 0-.176-.088-.44-.353-.618-.706-.177-.35-.266-.616-.266-.88 0-.177.177-.354.353-.442.176-.088.265-.088.44-.088s.266.088.442.265l.44-.44c-.176-.266-.44-.354-.618-.442-.353-.088-.618-.088-.882.088-.353.177-.618.442-.706.795-.088.44 0 .882.265 1.323.264.44.617.794 1.058.97.353.09.706.09 1.06-.087.264-.176.44-.352.617-.617.088-.265.088-.53 0-.882l-.705.176zm1.588.616l-1.853-2.824 1.94-1.06.354.44-1.413.795.44.618 1.325-.706.265.44-1.324.707.53.794 1.5-.794.264.44-2.03 1.15zM-152.594-145.427l.618.265c-.176.352-.088.705.265.882.176.088.352.177.528.177.176 0 .265-.088.353-.177 0-.088.09-.088.09-.176s0-.177-.09-.177c-.087-.088-.175-.265-.44-.44-.176-.177-.353-.353-.44-.53-.09-.176-.09-.265-.09-.44 0-.178.09-.266.177-.442s.265-.265.44-.353c.177-.088.354-.088.53-.088.177 0 .44.088.618.265.353.175.618.44.706.705.09.265.09.53-.087.794l-.618-.354c.088-.176.088-.265 0-.44l-.353-.354c-.176-.088-.265-.176-.44-.176s-.177 0-.266.088c-.088.088-.088.177 0 .265.088.087.176.264.44.528.266.265.442.44.53.617.09.176.09.353.09.44 0 .177-.09.354-.177.53-.177.266-.354.354-.707.442-.265.088-.706-.088-1.06-.265-.705-.354-.88-.972-.617-1.59zm2.383 2.647l2.382 1.147.265-.53-1.765-.793.44-.794 1.59.706.265-.53-1.588-.706.352-.618 1.677.794.264-.53-2.383-1.058-1.5 2.912zm3 1.324l1.146-3.09.706.266-.97 2.56 1.676.528-.176.53-2.383-.794zm2.823.97l.97-3.176 2.295.618-.177.53-1.675-.44-.265.705 1.412.354-.177.53-1.412-.354-.353 1.41-.617-.175z"/><g fill="#D8EDDD"><path d="M-189.303-131.925h.706v19.325h-.706v-19.325z"/><path d="M-188.95-114.1l-3.53-3 .44-.53 3.09 2.647 2.47-2.382.442.44-2.912 2.825z"/><path d="M-188.95-116.042l-3.53-3 .44-.53 3.09 2.648 2.47-2.47.442.53-2.912 2.822z"/><path d="M-188.95-118.248l-3.177-2.912.44-.53 2.737 2.56 2.206-2.118.44.53-2.646 2.47z"/><path d="M-188.95-119.925l-3.177-3 .44-.44 2.737 2.558 2.206-2.118.44.53-2.646 2.47z"/><path d="M-188.95-121.777l-3-2.824.44-.53 2.56 2.382 2.118-1.942.44.53-2.558 2.383z"/><path d="M-188.95-123.366l-3-2.824.44-.53 2.56 2.383 2.118-1.942.44.53-2.558 2.384z"/><path d="M-188.95-125.66l-2.912-2.736.44-.53 2.472 2.295 2.118-1.943.44.53-2.558 2.382z"/><path d="M-188.95-127.602l-2.736-2.56.44-.44 2.295 2.03 2.205-2.118.44.44-2.645 2.648z"/><path d="M-188.95-129.367l-2.647-2.382.44-.528 2.207 1.94 2.03-2.028.53.44-2.56 2.56z"/><path d="M-188.95-131.13l-2.647-2.384.44-.44 2.207 1.852 2.206-2.295.53.53-2.736 2.736z"/><path d="M-190.464-135.284l2.506 2.358-.483.515-2.507-2.36.483-.514z"/></g><g fill="#D8EDDD"><path d="M-142.357-131.925h.706v19.325h-.707v-19.325z"/><path d="M-142.005-114.1l-2.912-2.824.44-.44 2.472 2.38 3.09-2.646.44.53-3.53 3z"/><path d="M-142.005-116.042l-2.912-2.824.44-.53 2.472 2.47 3.09-2.647.44.53-3.53 3z"/><path d="M-142.005-118.248l-2.647-2.47.44-.53 2.207 2.117 2.736-2.56.442.53-3.177 2.912z"/><path d="M-142.005-119.925l-2.647-2.47.44-.53 2.207 2.117 2.736-2.56.442.442-3.177 3z"/><path d="M-142.005-121.777l-2.56-2.383.442-.53 2.118 1.942 2.56-2.383.44.53-3 2.823z"/><path d="M-142.005-123.366l-2.56-2.383.442-.53 2.118 1.943 2.56-2.382.44.53-3 2.824z"/><path d="M-142.005-125.66l-2.56-2.383.442-.53 2.118 1.942 2.47-2.296.442.53-2.912 2.735z"/><path d="M-142.005-127.602l-2.647-2.648.44-.44 2.207 2.117 2.294-2.03.44.44-2.735 2.56z"/><path d="M-142.005-129.367l-2.56-2.56.53-.44 2.03 2.03 2.118-1.942.53.53-2.648 2.383z"/><path d="M-142.005-131.13l-2.736-2.737.44-.53 2.294 2.295 2.118-1.853.53.44-2.647 2.384z"/><path d="M-140.513-135.268l.483.515-2.506 2.356-.485-.514 2.507-2.358z"/></g><path fill="#265C44" d="M-169.89-133.514c-2.56-2.56-3.09-6.266-2.47-10.678l2.823 4.236-.088-5.47 2.736 3.882 1.766-4.854 1.412 4.324 2.56-4.412v5.913l2.823-3.707c.883 3.97-.176 7.59-3.088 10.766h-8.472z"/><path fill="#D8EDDD" d="M-170.066-133.073l-.176-.177c-2.47-2.47-3.353-6.09-2.647-11.03l.707-.177 2.03 3.09-.088-4.06.88-.177 2.207 3.177 1.5-4.147h.794l1.148 3.53 2.118-3.706.794.176v4.765l2.56-3.44.175.882c.882 4.06-.176 7.854-3.177 11.12l-.177.176h-8.646zm-2.118-9.883c-.353 4.06.44 6.972 2.383 9.09h8.03c2.47-2.825 3.53-5.914 3-9.355l-2.207 2.91-.706-.263v-4.413l-2.294 3.97-1.324-4.06-1.59 4.502-2.382-3.354.088 4.147-.706.264-2.294-3.44z"/><path d="M-170.242-133.514h9.53c.088.53.088 1.147.088 1.59h-9.707c0-.443 0-.972.088-1.59zm9.53 2.383c-.088 1.322-.53 2.293-1.324 3h-6.706c-.882-.442-1.324-1.5-1.5-3h9.53z"/><path d="M-161.948-127.778h-6.883l-.09-.088c-.97-.53-1.587-1.59-1.764-3.265l-.088-.442v-2.295h10.236v.353c.088.618.088 1.147.088 1.677v.794c-.176 1.5-.618 2.56-1.412 3.265h-.088zm-6.706-.794h6.442c.53-.44.882-1.236.97-2.206h-8.56c.177 1.146.618 1.853 1.148 2.206zm-1.236-3.706h8.824v-.794h-8.736c-.088.264-.088.53-.088.794z"/><path fill="#265C44" d="M-170.242-133.514h9.53c.088.53.088 1.147.088 1.59h-9.707c0-.443 0-.972.088-1.59zm9.53 2.383c-.088 1.322-.53 2.293-1.324 3h-6.706c-.882-.442-1.324-1.5-1.5-3h9.53zm-1.59 3v1.94h-6.353v-2.03h6.354v.09z"/><path fill="#D8EDDD" d="M-161.948-125.75h-7.148v-2.117c-.883-.53-1.412-1.59-1.588-3.177l-.088-.44v-2.296h10.236v.353c.088.618.088 1.147.088 1.677v.794c-.176 1.5-.618 2.56-1.412 3.265l-.088.087v1.854zm-6.265-.88h5.56v-1.148h-5.56v1.147zm-.44-1.942h6.44c.53-.44.883-1.236.972-2.206h-8.56c.175 1.146.616 1.853 1.146 2.206zm-1.237-3.706h8.824v-.794h-8.736c-.088.264-.088.53-.088.794zM-169.524-136.902l1.99 2.364-.54.454-1.99-2.363.54-.455zM-168.05-137.617l1.363 1.62-.54.453-1.363-1.62.54-.453zM-161.215-136.996l.505.493-1.724 1.77-.506-.494 1.725-1.77zM-162.366-138.13l.507.492-1.723 1.77-.506-.492 1.724-1.77z"/><g><path fill="#D8EDDD" d="M-164.242-98.305h-2.47c-1.5-.352-2.737-1.764-2.913-3.353-.176-1.324.44-2.47 1.677-3.176l.44-19.414-1.234.088-.176-2.03h6.883l-.176 2.03-1.237-.088.44 19.414c1.236.706 1.854 1.853 1.678 3.176-.176 1.588-1.412 3-2.912 3.353zm-2.294-1.06h2.118c1.06-.264 1.94-1.323 2.03-2.47.088-.618 0-1.676-1.324-2.294l-.265-.175-.53-21.002h-1.94l-.53 21.002-.264.176c-1.325.707-1.413 1.766-1.325 2.295.087 1.148.97 2.207 2.03 2.47z"/></g><g><path fill="#265C44" d="M-156.653-97.6l-.706-9.088 3.707 2.736c-2.56-2.03-5.118-4.147-8.295-4.677-4.147 1.677-8.383.795-6.795-1.94-1.588.175-1.765-2.12-.706-1.854-1.41-1.06-1.234-1.677-.352-2.118-1.235-.97-1.06-1.5-.176-1.942-.53-.353-.265-1.058-.618-1.235-2.03-.528-1.853-2.823-.176-3 11.472-1.323 19.325 5.824 20.296 15.53.353 5.21-1.765 7.767-6.177 7.59z"/><path fill="#D8EDDD" d="M-156.3-97.158h-.794l-.706-9.266c-1.324-.794-2.647-1.412-4.147-1.765-3 1.148-6.09 1.148-7.148-.175-.265-.353-.618-.97-.265-1.853-.44-.088-.706-.353-.97-.706-.266-.53-.354-1.147 0-1.588 0 0 0-.088.087-.088-.44-.44-.706-.882-.618-1.324 0-.265.175-.53.44-.706-.44-.44-.618-.794-.618-1.236 0-.353.176-.618.53-.794-.09-.176-.177-.44-.177-.617v-.176c-1.236-.353-1.677-1.324-1.677-2.118.088-.884.706-1.59 1.677-1.678 5.56-.617 10.59.706 14.384 3.707 3.617 2.91 5.91 7.235 6.353 12.176.088 3-.53 5.206-1.853 6.53-1.058 1.058-2.56 1.676-4.5 1.676zm0-.882c1.765 0 3.09-.44 3.97-1.323 1.148-1.147 1.678-3.177 1.59-5.913-.53-4.677-2.648-8.824-6.09-11.56-3.618-2.912-8.383-4.147-13.766-3.53-.706.088-.97.53-.97.882 0 .44.264 1.06 1.146 1.324h.088c.353.176.44.53.44.794.09.265.09.44.266.53l.53.44-.618.265c-.265.175-.44.264-.53.44 0 .088 0 .353.707.883l.53.353-.62.265c-.264.178-.44.266-.44.442 0 .088 0 .353.882.97l-.353.706h-.088c-.088.088-.088.44.088.706.088.176.353.44.794.353l.794-.088-.44.705c-.354.618-.354 1.147-.09 1.5.795.882 3.354 1.06 6.355-.088h.176c1.413.265 2.737.794 3.972 1.588v-.088l.353.265c1.147.706 2.294 1.59 3.353 2.47l.706.62-.53.617-2.735-2.384.53 7.854z"/></g><g><path fill="#D8EDDD" d="M-170.596-117.453v-.794c1.94-.176 2.912-.97 3-2.648h.794c-.087 1.412-.705 3.177-3.794 3.442z"/></g><g><path fill="#D8EDDD" d="M-158.683-109.335c-.794-.706-1.412-1.853-2.03-3-1.588-3-3.44-6.442-9.266-5.03l-.264-.794c6.53-1.588 8.56 2.295 10.236 5.384.618 1.147 1.147 2.206 1.853 2.824l-.528.617z"/></g><g><path fill="#D8EDDD" d="M-164.42-114.806c-1.764 0-3.617-.44-5.647-1.412l.353-.706c2.206 1.06 4.06 1.412 5.912 1.324l.088.794h-.705z"/></g><g><path fill="#D8EDDD" d="M-163.448-113.04c-2.118 0-4.853-.62-6.706-1.413l.353-.706c1.852.884 4.852 1.5 6.882 1.325l.088.794h-.618z"/></g><g><path fill="#D8EDDD" d="M-163.183-111.365c-2.206 0-5.118-.44-6.883-1.235l.353-.706c1.853.883 5.206 1.235 7.324 1.147l.09.795h-.883z"/></g><g><path fill="#D8EDDD" d="M-164.595-109.424c-1.412 0-2.824-.176-4.148-.794l.353-.706c1.765.882 3.97.706 6 .618h.177l.088.794h-.176c-.883 0-1.59.088-2.295.088z"/></g><g><path fill="#FFF" d="M-163.712-107.747l-.176-2.118c-.088-.53-.353-1.412-.353-1.59-.177-.352-.09-1.41 0-2.028l-.09-2.03 1.59-1.06.97 2.03-.53 1.148v.883l.177 1.676.618 2.206-2.207.883zm.176-7.324v1.588c-.088.706-.088 1.5 0 1.676.088.353.353 1.59.44 1.853l.09 1.06.528-.178-.44-1.59-.177-1.853.088-1.236.353-.793-.44-.882-.442.354z"/></g><g><path fill="#265C44" d="M-185.244-116.483c.265 7.413 3.883 12.354 9.442 15.884l-.882 2.12c8.207 3 15.707 2.91 22.502-.09l2.383 3.707 1.5 2.56c-9.53 3.97-19.412 4.588-29.825.087l1.147-2.56 2.294-3.793-2.294 3.795c-7.59-3.618-12.178-10.59-13.854-20.826l3.97 3.176 3.618-4.06zm31.15 17.914l2.383 3.707c9.176-4.942 12.706-12.178 13.765-20.296l-4.06 2.825-3.53-3.97c-.264 6.353-3.088 11.647-9.617 15.354l1.058 2.38z"/><path fill="#D8EDDD" d="M-165.477-88.598c-4.942 0-9.883-1.058-14.825-3.177l-.353-.176 1.147-2.56c-7.5-3.707-12.09-10.766-13.766-20.914l.618-.353 3.706 2.912 3.353-3.883.706.265c.175 6.707 3.264 11.825 9.265 15.62l.265.176-.794 2.03c7.765 2.735 15 2.735 21.443-.088l-1.06-2.383.353-.176c6-3.44 9.09-8.383 9.354-15.002l.706-.265 3.353 3.706 4.5-3.09-.087.884c-1.148 9.354-5.56 15.884-13.59 20.384l1.5 2.647-.442.177c-5.207 2.118-10.325 3.265-15.355 3.265zm-14.12-3.795c9.443 3.97 18.885 3.883 28.68-.088l-1.412-2.56-1.94-3.09c-6.706 2.914-14.207 2.914-22.237.09l-2.118 3.44-.97 2.207zm-12.618-22.15c1.765 9.355 6.177 15.797 13.148 19.238l2.118-3.44.707-1.766c-5.824-3.707-8.824-8.65-9.354-15.09l-3.177 3.793-3.44-2.735zm38.474 15.797l2.117 3.353c7.59-4.236 11.825-10.236 13.06-18.884l-3.53 2.47-3.177-3.53c-.53 6.354-3.618 11.12-9.442 14.56l.97 2.03z"/><path fill="#D8EDDD" d="M-186.39-110.924l.44 1.236c.088.265.176.53.176.706 0 .176-.088.353-.176.53-.088.175-.265.352-.44.44-.177.176-.442.265-.795.352-.265.088-.53.088-.794.088s-.44-.088-.617-.176c-.176-.088-.353-.176-.44-.353-.09-.178-.266-.354-.354-.62l-.442-1.235 3.44-.97zm-.354.795l-2.294.707.176.53c.088.176.176.353.176.44.088.09.176.177.265.177.087 0 .175.088.352.088s.353-.088.618-.088c.265-.088.44-.176.618-.265.176-.09.265-.178.265-.266.088-.088.088-.265.088-.353 0-.087-.087-.264-.176-.53l-.088-.44zm-1.853 3.53l1.235 2.295.53-.265-.883-1.677.882-.44.794 1.5.53-.266-.794-1.5.706-.353.882 1.677.53-.264-1.237-2.294-3.174 1.588zm1.588 2.824l2.825-2.03.44.53-2.382 1.676 1.06 1.41-.53.354-1.412-1.94zm1.766 2.294l.53.53 1.147-1.06.97.972-1.146 1.06.53.53 2.56-2.384-.442-.53-1.06.97-.97-.97 1.06-.97-.53-.44-2.65 2.292zm2.56 2.47l2.293-2.647.528.442-2.294 2.648-.53-.44zm8.294 6.62l1.235-3.09 1.147.354c.44.177.706.265.794.353.176.088.353.265.353.44.087.178.087.442 0 .706-.09.266-.177.354-.354.53-.176.09-.353.177-.53.177-.175 0-.528-.088-.88-.176l-.442-.176-.44 1.147-.884-.263zm1.677-2.295l-.353.883.353.088c.265.088.44.176.53.176.087 0 .175 0 .264-.088.09-.088.178-.088.178-.264 0-.088.088-.176 0-.265 0-.088-.088-.177-.177-.177-.087-.088-.264-.088-.528-.265l-.265-.087zm2.47.177l.707.088-.353 1.765c-.087.265-.087.44-.087.53 0 .176.088.264.176.352.087.088.264.176.44.176h.44c.09 0 .177-.087.266-.175.088-.088.088-.265.176-.618l.353-1.764.706.088-.352 1.677c-.088.44-.176.706-.265.883-.088.176-.265.353-.53.44-.265.09-.53.09-.882 0-.352-.087-.617-.176-.88-.264-.177-.176-.354-.265-.354-.53-.088-.176 0-.53.088-1.06l.354-1.586zm3.442.44h1.5c.44 0 .705 0 .88.09.177.087.266.175.442.264.088.176.176.264.176.44 0 .178-.088.266-.176.442-.088.088-.176.265-.353.265l.528.266c.088.176.177.265.177.53s-.088.44-.265.618c-.176.176-.353.265-.53.265h-2.294l-.087-3.18zm.705.53v.794h1.06c.087 0 .264-.088.264-.088.087-.088.087-.177.087-.265 0-.087 0-.176-.088-.264-.09-.088-.09-.088-.177-.088h-.706l-.442-.088zm0 1.324v.883h1.324c.087 0 .175-.088.175-.176.088-.087.088-.176.088-.264 0-.088 0-.176-.088-.265-.088-.087-.176-.087-.265-.176h-1.235zm3.353 1.324l-.44-3.265.705-.088.353 2.647 1.853-.176.087.53-2.56.352zm3.442-.442l-.794-3.177.706-.178.794 3.177-.706.176zm3.618-2.206h.706c0 .353-.088.706-.265.97-.177.266-.442.442-.795.53-.44.177-.882.177-1.235 0-.44-.176-.706-.53-.882-1.058-.176-.53-.176-.97 0-1.41.176-.354.53-.62.97-.795.354-.088.707-.088 1.06 0 .265.088.44.265.618.44l-.53.442c-.087-.177-.264-.266-.44-.266-.176-.088-.353 0-.53 0-.264.088-.44.265-.53.44-.087.178-.087.53.09.883.176.353.352.618.53.794.175.09.44.09.705.09.177-.09.354-.177.442-.354.086-.176.086-.44.086-.706zM-151.976-97.6l.53-.44c.353.265.706.353.97.088.177-.088.266-.265.354-.353.088-.176 0-.264-.088-.352-.088-.088-.088-.088-.176-.088h-.265c-.09 0-.266.088-.62.176-.264.09-.528.177-.705.177-.176 0-.353 0-.44-.088-.177-.09-.266-.178-.354-.266-.087-.176-.175-.265-.175-.44s.088-.354.176-.53c.09-.177.266-.354.53-.442.353-.265.618-.353.97-.353.266 0 .53.175.795.352l-.618.44c-.176-.087-.265-.175-.353-.175s-.265.088-.44.176c-.177.088-.266.176-.266.353-.088.088 0 .176 0 .265.088.09.176.09.265.09.088 0 .353-.09.618-.177.354-.176.62-.176.795-.265.176 0 .353 0 .53.088.175.088.264.176.44.353.176.264.265.53.176.793-.087.265-.264.53-.705.794-.794.442-1.412.353-1.94-.176zm4.236-3.44c.088.177.176.44.176.618 0 .177-.088.353-.265.44-.175.178-.44.266-.617.178-.265 0-.53-.177-.794-.53-.266-.265-.442-.53-.442-.794 0-.265.088-.44.265-.618.088-.088.265-.177.44-.177s.354 0 .53.088l.44-.53c-.264-.176-.528-.265-.793-.176-.353 0-.618.175-.97.44-.354.353-.53.618-.53 1.06 0 .44.177.882.618 1.323.353.353.794.618 1.235.618.44 0 .794-.087 1.147-.44.265-.265.44-.53.53-.794s0-.618-.177-.97l-.793.264zm1.765 0l-2.736-2.03.44-.53 1.06.795.88-1.058-1.058-.794.44-.53 2.737 2.03-.442.53-1.147-.883-.882 1.058 1.147.883-.44.53zm.53-3.353c.528.265.97.353 1.41.176.354-.088.707-.353.972-.794.265-.442.353-.795.176-1.148-.088-.44-.44-.794-.97-1.06-.53-.264-.972-.352-1.413-.175-.44.088-.794.353-.97.794-.177.266-.266.53-.266.795s.088.53.265.794c.176.175.44.44.794.617zm.352-.618c.353.176.618.264.97.176.266-.088.442-.177.62-.44.175-.266.175-.442.087-.707-.088-.266-.353-.442-.706-.62-.353-.175-.618-.264-.882-.175-.265.088-.44.176-.618.44-.176.266-.176.442-.088.707 0 .264.264.44.617.617zm1.324-2.296c-.352-.176-.705-.353-.88-.53-.177-.175-.354-.44-.354-.705 0-.266 0-.53.088-.884.176-.44.44-.794.882-.97.44-.177.882-.177 1.412 0 .53.175.883.44 1.147.882.176.353.176.794 0 1.235-.176.44-.44.794-.795.97-.44.178-.97.178-1.5 0zm.265-.705c.353.087.706.175.97 0 .266-.09.442-.266.53-.53.09-.265.09-.44-.088-.706-.088-.265-.353-.44-.794-.53-.353-.087-.706-.176-.97-.087-.266.088-.442.265-.53.53-.088.265-.088.53 0 .706.176.35.44.527.882.616zm2.56-2.12l.617-2.293-.53-.177-.44 1.588-2.825-.618-.176.618 3.354.883z"/></g><g><path fill="#D8EDDD" d="M-105.56-99.893h1.853v5.295c0 .618.088 1.058.177 1.323.176.44.706.706 1.412.706s1.147-.264 1.412-.705c.176-.265.176-.705.176-1.323v-5.295h1.853v5.295c0 .882-.176 1.588-.44 2.118-.53.97-1.5 1.412-3 1.412s-2.472-.44-3-1.412c-.266-.53-.442-1.235-.442-2.118v-5.295zm13.766 2.56c.44.352.618.882.618 1.676v4.236h-1.677v-3.884c0-.353-.088-.618-.177-.794-.176-.353-.44-.53-.882-.53-.53 0-.97.265-1.147.706-.087.265-.176.53-.176.97v3.442h-1.677v-6.354h1.59v.883c.175-.354.44-.53.617-.707.352-.265.794-.353 1.323-.353.618.176 1.236.353 1.59.706zm5.736-.266c.265.177.53.442.706.707v-3h1.676v8.56h-1.59v-.883c-.263.353-.528.618-.793.794-.264.177-.705.265-1.146.265-.706 0-1.324-.265-1.853-.882-.53-.617-.793-1.323-.793-2.293 0-1.06.265-1.942.706-2.56.53-.617 1.147-.97 2.03-.97.44 0 .794.087 1.06.264zm.44 4.5c.266-.352.353-.793.353-1.322 0-.794-.176-1.324-.617-1.677-.265-.176-.53-.264-.794-.264-.44 0-.882.176-1.06.53-.264.352-.352.793-.352 1.323 0 .617.088 1.057.353 1.41s.618.53 1.06.53.794-.176 1.058-.53zm7.855-4.41c.44.175.794.53 1.06.97.264.353.44.794.53 1.324.087.265.087.706.087 1.236h-4.59c0 .617.265 1.058.706 1.323.265.176.53.265.882.265.353 0 .706-.088.883-.265.088-.088.265-.265.353-.44h1.677c-.088.352-.265.793-.618 1.146-.53.617-1.324.882-2.383.882-.883 0-1.588-.265-2.206-.794-.618-.53-.97-1.324-.97-2.56 0-1.058.264-1.94.882-2.558.618-.618 1.323-.883 2.294-.883.53 0 .972.087 1.413.352zm-2.47 1.41c-.266.266-.353.53-.442.972h2.824c0-.44-.177-.794-.442-.97-.265-.266-.618-.354-.97-.354-.354 0-.707.09-.972.353zm8.736-1.764h.176v1.677h-.442c-.706 0-1.147.177-1.324.618-.088.266-.176.62-.176 1.148v3h-1.677v-6.354h1.59v1.147c.265-.44.44-.705.706-.882.176-.175.617-.352 1.147-.352-.09 0 0 0 0 0zm4.235 1.412V-97.6h.882v-1.763h1.677v1.764h1.06v1.148h-1.06v3.353c0 .266 0 .442.088.442.088.088.265.088.618.088h.353v1.236h-.794c-.794 0-1.324-.088-1.59-.44-.176-.177-.264-.442-.264-.883v-3.883h-.97v.088zm9.442-1.147c.353.177.617.354.794.62.176.264.265.44.353.705 0 .265.088.618.088 1.236v3.707h-1.676v-3.883c0-.353-.09-.618-.178-.794-.176-.265-.44-.44-.882-.44-.44 0-.794.175-.97.44-.266.265-.354.706-.354 1.236v3.44h-1.676v-8.56h1.676v3c.265-.352.53-.617.794-.793.353-.177.618-.177.97-.177.354 0 .707.088 1.06.265zm7.06.09c.44.175.793.53 1.058.97.265.353.44.794.53 1.324.087.265.087.706.087 1.236h-4.677c0 .617.265 1.058.706 1.323.265.176.53.265.882.265.353 0 .706-.088.883-.265.087-.088.264-.265.352-.44h1.677c-.09.352-.266.793-.62 1.146-.53.617-1.323.882-2.382.882-.882 0-1.588-.265-2.206-.794-.618-.53-.97-1.324-.97-2.56 0-1.058.264-1.94.882-2.558.618-.618 1.324-.883 2.294-.883.53 0 1.06.087 1.5.352zm-2.47 1.41c-.266.266-.354.53-.442.972h2.824c0-.44-.177-.794-.44-.97-.266-.266-.62-.354-.972-.354-.442 0-.795.09-.97.353zm10.852-3.793h2.03l3 8.56h-1.94l-.53-1.765h-3.177l-.617 1.765h-1.853l3.087-8.56zm-.088 5.295h2.206l-1.06-3.354-1.146 3.354zm10.5-2.913c.442.175.795.53 1.06.97.265.353.44.794.53 1.324.088.265.088.706.088 1.236h-4.59c0 .617.266 1.058.707 1.323.264.176.528.265.88.265s.707-.088.884-.265c.088-.088.265-.265.353-.44h1.677c-.088.352-.265.793-.618 1.146-.53.617-1.324.882-2.383.882-.882 0-1.588-.265-2.206-.794-.618-.53-.97-1.324-.97-2.56 0-1.058.264-1.94.88-2.558.62-.618 1.325-.883 2.295-.883.443 0 .972.087 1.413.352zm-2.47 1.41c-.264.266-.352.53-.44.972h2.824c0-.44-.176-.794-.44-.97-.266-.266-.62-.354-.972-.354-.442 0-.795.09-.97.353zm8.296-1.587c.44.176.706.44.97.883v-.883h1.59v6c0 .795-.177 1.413-.442 1.854-.44.706-1.41 1.06-2.735 1.06-.794 0-1.5-.177-1.942-.442-.528-.353-.793-.794-.88-1.412h1.763c.088.177.088.353.265.44.177.177.44.266.883.266.62 0 .972-.178 1.237-.62.088-.264.177-.705.177-1.323v-.44c-.177.264-.353.44-.53.617-.353.265-.794.353-1.324.353-.794 0-1.5-.265-1.942-.883-.53-.53-.705-1.324-.705-2.294s.265-1.765.705-2.383c.44-.618 1.147-.97 2.03-.97.44 0 .705.087.882.176zm.617 4.588c.265-.264.44-.793.44-1.41 0-.618-.087-1.06-.352-1.412-.265-.353-.618-.44-1.06-.44-.617 0-.97.264-1.235.793-.088.266-.176.62-.176 1.06 0 .353.088.706.176.97.265.53.618.794 1.236.794.354.09.707-.088.97-.353zm5.472-5.293h-1.678v-1.5h1.677v1.5zm-1.678.706h1.677v6.354h-1.678v-6.354zm4.853 4.324c0 .265.088.53.265.618.177.265.618.353 1.147.353.352 0 .617-.088.794-.176.177-.088.266-.265.266-.44 0-.178-.088-.354-.265-.442-.176-.088-.704-.265-1.763-.53-.706-.175-1.236-.44-1.5-.705-.265-.265-.44-.618-.44-1.147 0-.618.264-1.06.705-1.5.44-.44 1.147-.618 1.942-.618.794 0 1.41.176 1.94.44.53.354.795.884.883 1.678h-1.677c0-.176-.088-.353-.177-.53-.177-.264-.53-.352-.97-.352-.353 0-.618.088-.794.176-.178.088-.266.265-.266.353 0 .177.088.353.265.44.176.09.705.266 1.763.442.618.176 1.147.353 1.5.706s.53.706.53 1.147c0 .618-.265 1.147-.706 1.5-.44.353-1.147.618-2.206.618-.97 0-1.764-.176-2.205-.618-.44-.44-.706-.97-.706-1.59h1.676v.177zm14.384 1.235c-.53.618-1.325.97-2.472.97-1.058 0-1.94-.352-2.47-.97-.53-.618-.795-1.412-.795-2.382 0-.883.265-1.677.794-2.383.53-.706 1.324-.97 2.47-.97 1.06 0 1.943.352 2.472.97.53.706.793 1.5.793 2.383 0 .97-.265 1.764-.794 2.382zm-1.325-.882c.265-.353.353-.794.353-1.5 0-.618-.088-1.147-.353-1.5s-.618-.53-1.147-.53c-.44 0-.882.177-1.147.53-.264.353-.352.794-.352 1.5 0 .618.088 1.147.353 1.5.266.353.618.53 1.148.53.53 0 .882-.177 1.147-.53zm6.177-6.97h.353v1.323h-.44c-.178 0-.354 0-.442.177-.088.088-.088.176-.088.352v.53h1.06v1.147h-1.06v5.117H.068v-5.118h-.97V-97.6h.882v-.44c0-.706.088-1.148.353-1.412.265-.353.794-.53 1.765-.53h.264zm11.472.087v1.5h-2.56v7.06H9.51v-7.06H6.95v-1.5h6.884zm5.648 2.294c.353.177.618.354.794.62.177.264.265.44.353.705 0 .265.087.618.087 1.236v3.707H19.04v-3.883c0-.353-.088-.618-.177-.794-.177-.265-.44-.44-.883-.44-.44 0-.794.175-.97.44-.265.265-.353.706-.353 1.236v3.44H14.98v-8.56h1.677v3c.265-.352.53-.617.794-.793.353-.177.618-.177.97-.177.444 0 .797.088 1.062.265zm7.148.09c.44.175.794.53 1.06.97.264.353.44.794.528 1.324.088.265.088.706.088 1.236h-4.59c0 .617.266 1.058.707 1.323.265.176.53.265.883.265s.706-.088.883-.265c.087-.088.264-.265.352-.44h1.676c-.088.352-.265.793-.618 1.146-.53.617-1.323.882-2.382.882-.883 0-1.59-.265-2.206-.794-.618-.53-.97-1.324-.97-2.56 0-1.058.264-1.94.882-2.558.618-.618 1.324-.883 2.295-.883.44 0 .968.087 1.41.352zm-2.472 1.41c-.265.266-.353.53-.44.972h2.823c0-.44-.175-.794-.44-.97-.265-.266-.618-.354-.97-.354-.442 0-.795.09-.972.353zm13.855-3.617c.618.176 1.06.53 1.5 1.06.265.44.53.88.618 1.41.09.53.178.97.178 1.412 0 1.147-.265 2.118-.706 2.912-.618 1.06-1.59 1.59-2.912 1.59h-3.706v-8.56h3.706c.528 0 .97.088 1.323.176zm-3.265 1.324v5.56h1.676c.883 0 1.412-.442 1.765-1.236.176-.44.264-.97.264-1.676 0-.882-.177-1.5-.44-2.03-.266-.44-.795-.705-1.59-.705h-1.676v.087zm11.118.882c.44.175.794.53 1.06.97.264.353.44.794.53 1.324.087.265.087.706.087 1.236h-4.59c0 .617.266 1.058.707 1.323.265.176.53.265.883.265s.706-.088.883-.265c.088-.088.264-.265.352-.44h1.677c-.088.352-.265.793-.618 1.146-.53.617-1.324.882-2.382.882-.883 0-1.59-.265-2.206-.794-.62-.53-.972-1.324-.972-2.56 0-1.058.265-1.94.883-2.558.62-.618 1.325-.883 2.296-.883.44 0 .97.087 1.41.352zm-2.56 1.41c-.264.266-.352.53-.44.972h2.824c0-.44-.176-.794-.44-.97-.266-.266-.62-.354-.972-.354-.353 0-.706.09-.97.353zm6.972 4.766h-1.676v-8.56h1.676v8.56zm6.354-6.265c.353.177.618.354.794.62.176.264.265.44.353.705 0 .265.087.618.087 1.236v3.707H56.19v-3.883c0-.353-.088-.618-.177-.794-.176-.265-.44-.44-.882-.44-.44 0-.793.175-.97.44-.264.265-.352.706-.352 1.236v3.44H52.13v-8.56h1.678v3c.265-.352.53-.617.794-.793.352-.177.617-.177.97-.177.442 0 .795.088 1.06.265zm4.677-.793h-1.677v-1.5h1.676v1.5zm-1.677.706h1.676v6.354h-1.677v-6.354zm12.97 2.647c-.528.44-1.235.618-2.117.618H68.72v3.088h-1.764v-8.56h3.706c.882 0 1.5.265 2.03.706.53.44.794 1.147.794 2.03-.175.97-.44 1.677-.882 2.118zm-1.41-3.09c-.266-.175-.53-.263-.972-.263h-1.587v2.56h1.588c.442 0 .707-.09.972-.266.265-.176.353-.53.353-.97 0-.53-.088-.882-.353-1.06zm5.294.443v3.795c0 .352 0 .617.088.794.176.353.44.44.882.44.53 0 .97-.264 1.147-.705.088-.265.177-.617.177-.97v-3.442h1.678v6.354h-1.59v-.883s-.087.088-.087.176c-.087.088-.176.177-.176.265-.264.265-.53.353-.794.44-.265.09-.53.09-.883.09-.97 0-1.59-.354-1.853-.972-.177-.353-.265-.883-.265-1.676v-3.795h1.676v.088zm11.295.794c.44.618.706 1.412.706 2.295 0 .97-.265 1.764-.706 2.47-.44.618-1.147.97-1.94.97-.53 0-.972-.087-1.237-.352-.176-.088-.353-.353-.618-.618v.794H82.31v-8.56h1.677v3.088c.176-.265.44-.53.706-.706.265-.176.706-.265 1.147-.265.795 0 1.5.266 1.942.884zM86.37-93.01c.265-.353.353-.794.353-1.323 0-.44-.088-.794-.176-1.147-.265-.53-.618-.794-1.236-.794s-1.058.265-1.234.794c-.088.265-.177.706-.177 1.147 0 .53.087.97.352 1.323s.618.53 1.147.53c.44-.09.794-.266.97-.53zm5.207 1.676H89.9v-8.56h1.677v8.56zm3.53-7.06H93.43v-1.5h1.677v1.5zm-1.677.707h1.677v6.354H93.43v-6.354zm7.324 2.294c0-.265-.088-.44-.265-.618-.177-.266-.442-.354-.883-.354-.53 0-.97.265-1.147.794-.088.265-.176.706-.176 1.147s.088.794.176 1.147c.176.53.53.794 1.147.794.353 0 .706-.088.794-.353.177-.177.266-.44.266-.794h1.676c0 .53-.265.972-.53 1.413-.53.706-1.323 1.06-2.294 1.06-1.06 0-1.765-.266-2.295-.883-.44-.618-.705-1.412-.705-2.382 0-1.06.265-1.942.794-2.56.53-.617 1.236-.882 2.206-.882.794 0 1.412.177 1.942.53.53.353.794.97.882 1.853h-1.588v.087zm8.03 1.412c.088.35.176.704.353.88.265.354.794.53 1.5.53.44 0 .794-.088 1.058-.176.53-.176.794-.53.794-.97 0-.265-.09-.53-.354-.618-.265-.176-.618-.265-1.147-.44l-.972-.177c-.883-.178-1.5-.442-1.853-.62-.618-.352-.883-.97-.883-1.852 0-.794.265-1.41.883-1.94.53-.53 1.412-.795 2.47-.795.883 0 1.677.265 2.295.706.618.44.97 1.146.97 2.117h-1.676c0-.53-.265-.882-.706-1.058-.264-.177-.617-.177-1.058-.177-.44 0-.883.088-1.147.265-.265.176-.44.44-.44.794 0 .265.176.53.44.706.176.088.53.176 1.147.353l1.5.354c.618.176 1.147.353 1.5.618.53.44.794.97.794 1.765 0 .794-.265 1.41-.883 1.94-.617.53-1.5.795-2.558.795-1.147 0-2.03-.265-2.648-.794-.618-.53-.97-1.236-.97-2.118h1.588v-.09zm10.5-1.413c0-.265-.087-.44-.264-.618-.176-.266-.44-.354-.883-.354-.53 0-.97.265-1.147.794-.088.265-.176.706-.176 1.147s.088.794.176 1.147c.176.53.53.794 1.147.794.353 0 .706-.088.794-.353.178-.177.266-.44.266-.794h1.676c0 .53-.265.972-.53 1.413-.53.706-1.323 1.06-2.294 1.06-1.06 0-1.765-.266-2.295-.883-.44-.618-.705-1.412-.705-2.382 0-1.06.265-1.942.794-2.56.53-.617 1.236-.882 2.206-.882.794 0 1.412.177 1.942.53.53.353.794.97.882 1.853h-1.588v.087zm7.678-2.206c.353.177.618.354.794.62.176.264.265.44.353.705 0 .265.087.618.087 1.236v3.707h-1.677v-3.883c0-.353-.088-.618-.177-.794-.176-.265-.44-.44-.882-.44-.44 0-.793.175-.97.44-.264.265-.352.706-.352 1.236v3.44h-1.677v-8.56h1.678v3c.265-.352.53-.617.794-.793.353-.177.618-.177.97-.177.354 0 .707.088 1.06.265zm8.207 5.472c-.53.618-1.324.97-2.47.97-1.06 0-1.943-.352-2.472-.97-.53-.618-.794-1.412-.794-2.382 0-.883.265-1.677.794-2.383.53-.706 1.324-.97 2.47-.97 1.06 0 1.942.352 2.47.97.53.706.795 1.5.795 2.383 0 .97-.265 1.764-.794 2.382zm-1.324-.882c.265-.353.353-.794.353-1.5 0-.618-.09-1.147-.354-1.5-.265-.353-.618-.53-1.147-.53-.442 0-.884.177-1.148.53-.265.353-.353.794-.353 1.5 0 .618.087 1.147.352 1.5s.618.53 1.147.53c.528 0 .88-.177 1.146-.53zm8.824.882c-.53.618-1.324.97-2.47.97-1.06 0-1.942-.352-2.47-.97-.53-.618-.795-1.412-.795-2.382 0-.883.265-1.677.794-2.383.528-.706 1.323-.97 2.47-.97 1.058 0 1.94.352 2.47.97.53.706.794 1.5.794 2.383 0 .97-.265 1.764-.794 2.382zm-1.324-.882c.265-.353.353-.794.353-1.5 0-.618-.09-1.147-.354-1.5-.265-.353-.618-.53-1.147-.53-.53 0-.884.177-1.148.53-.265.353-.353.794-.353 1.5 0 .618.087 1.147.352 1.5.264.353.617.53 1.147.53.528 0 .88-.177 1.146-.53zm5.295 1.676h-1.676v-8.56h1.677v8.56zm6.795-2.647c.088.35.176.704.353.88.265.354.794.53 1.5.53.44 0 .794-.088 1.06-.176.528-.176.793-.53.793-.97 0-.265-.087-.53-.352-.618-.265-.176-.618-.265-1.147-.44l-.97-.177c-.882-.178-1.5-.442-1.853-.62-.618-.352-.883-.97-.883-1.852 0-.794.265-1.41.883-1.94.53-.53 1.41-.795 2.47-.795.884 0 1.678.265 2.296.706.617.44.97 1.146.97 2.117h-1.676c0-.53-.265-.882-.706-1.058-.264-.177-.617-.177-1.058-.177-.44 0-.883.088-1.147.265-.265.176-.44.44-.44.794 0 .265.175.53.44.706.176.088.53.176 1.147.353l1.5.354c.618.176 1.147.353 1.5.618.53.44.794.97.794 1.765 0 .794-.265 1.41-.883 1.94-.617.53-1.5.795-2.56.795-1.146 0-2.03-.265-2.646-.794-.618-.53-.97-1.236-.97-2.118h1.587v-.09zm12.002 1.852c-.53.618-1.324.97-2.47.97-1.06 0-1.942-.352-2.47-.97-.53-.618-.795-1.412-.795-2.382 0-.883.265-1.677.794-2.383.53-.706 1.324-.97 2.47-.97 1.06 0 1.942.352 2.47.97.53.706.795 1.5.795 2.383 0 .97-.264 1.764-.793 2.382zm-1.324-.882c.265-.353.353-.794.353-1.5 0-.618-.088-1.147-.353-1.5s-.618-.53-1.147-.53c-.44 0-.882.177-1.147.53-.266.353-.354.794-.354 1.5 0 .618.088 1.147.353 1.5.264.353.617.53 1.146.53.53 0 .882-.177 1.147-.53zm7.325-2.383c0-.265-.088-.44-.265-.618-.176-.266-.44-.354-.883-.354-.53 0-.97.265-1.147.794-.088.265-.176.706-.176 1.147s.088.794.176 1.147c.177.53.53.794 1.147.794.353 0 .706-.088.794-.353.176-.177.265-.44.265-.794h1.675c0 .53-.265.972-.53 1.413-.53.706-1.323 1.06-2.294 1.06-1.058 0-1.764-.266-2.294-.883-.44-.618-.706-1.412-.706-2.382 0-1.06.265-1.942.794-2.56.53-.617 1.236-.882 2.206-.882.794 0 1.412.177 1.94.53.53.353.795.97.884 1.853h-1.588v.087zm4.765-3h-1.677v-1.5h1.677v1.5zm-1.677.706h1.677v6.354h-1.677v-6.354zm7.677.176c.44.175.794.53 1.06.97.264.353.44.794.528 1.324.09.265.09.706.09 1.236H179.2c0 .617.265 1.058.706 1.323.265.176.53.265.883.265s.706-.088.883-.265c.088-.088.265-.265.353-.44h1.677c0 .352-.265.793-.618 1.146-.53.617-1.324.882-2.382.882-.883 0-1.59-.265-2.206-.794-.618-.53-.97-1.324-.97-2.56 0-1.058.264-1.94.882-2.558.617-.618 1.323-.883 2.294-.883.528 0 1.058.087 1.5.352zm-2.47 1.41c-.266.266-.354.53-.442.972h2.825c0-.44-.176-.794-.44-.97-.266-.266-.618-.354-.97-.354-.443 0-.708.09-.973.353zm4.588-.352V-97.6h.884v-1.763h1.676v1.764h1.06v1.148h-1.06v3.353c0 .266 0 .442.088.442.088.088.265.088.618.088h.353v1.236h-.795c-.794 0-1.324-.088-1.588-.44-.176-.177-.265-.442-.265-.883v-3.883h-.97v.088zm5.03 6.354h.62c.175 0 .264-.088.352-.176.088-.088.176-.177.264-.44.088-.177.088-.354.088-.354l-2.294-6.62h1.853l1.41 4.678 1.325-4.677h1.765l-2.206 6.265c-.44 1.236-.794 1.942-.97 2.206-.266.264-.707.44-1.5.44h-.795v-1.322h.09zm12.796-5.47c0 .352-.088.705-.353.88-.265.266-.53.354-.883.354s-.706-.088-.883-.353c-.264-.265-.352-.53-.352-.882s.088-.705.352-.882c.265-.265.53-.353.883-.353s.706.088.883.353c.265.177.353.442.353.883zm11.824-2.825h-4.5v1.853h4.148v1.5h-4.148v2.206h4.765v1.5h-6.53v-8.56h6.265v1.5zm3 5.03c0 .265.09.53.266.618.176.265.618.353 1.147.353.353 0 .618-.088.794-.176.176-.088.265-.265.265-.44 0-.178-.088-.354-.265-.442-.177-.088-.706-.265-1.764-.53-.706-.175-1.236-.44-1.5-.705-.265-.265-.44-.618-.44-1.147 0-.618.264-1.06.705-1.5.44-.44 1.147-.618 1.942-.618.794 0 1.41.176 1.94.44.53.354.795.884.884 1.678h-1.677c0-.176-.088-.353-.176-.53-.175-.264-.528-.352-.97-.352-.352 0-.617.088-.793.176-.176.088-.265.265-.265.353 0 .177.088.353.265.44.176.09.706.266 1.764.442.62.176 1.148.353 1.5.706.354.353.53.706.53 1.147 0 .618-.265 1.147-.706 1.5-.44.353-1.147.618-2.206.618-.97 0-1.765-.176-2.206-.618-.44-.44-.706-.97-.706-1.59h1.677v.177zm4.854-3.09v-1.146h.883v-1.763h1.676v1.764h1.06v1.148h-1.06v3.353c0 .266 0 .442.088.442.09.088.266.088.62.088h.352v1.236h-.794c-.794 0-1.324-.088-1.588-.44-.177-.177-.265-.442-.265-.883v-3.883h-.97v.088zm4.854 3.354h1.764v1.766h-1.764V-93.1zm8.824-5.293h-1.677v-1.5h1.677v1.5zm-1.677.706h1.677v6.354h-1.677v-6.354zm8.648.353c.44.353.618.883.618 1.677v4.236h-1.675v-3.884c0-.353-.088-.618-.176-.794-.178-.353-.442-.53-.884-.53-.53 0-.97.265-1.147.706-.09.265-.177.53-.177.97v3.442h-1.676v-6.354h1.588v.883c.176-.354.44-.53.618-.707.353-.265.794-.353 1.324-.353.616.176 1.145.353 1.586.706zm6 .176v-1.147c.53 0 .883-.088 1.06-.088.353-.088.618-.265.794-.44.176-.177.265-.354.353-.62 0-.175.088-.264.088-.352h1.41v8.383h-1.675v-5.824h-2.03v.088zm7.15-1.853c.528-.53 1.234-.883 2.028-.883 1.325 0 2.12.53 2.65 1.676.263.618.44 1.5.44 2.56 0 1.058-.088 1.852-.353 2.558-.53 1.325-1.41 1.943-2.735 1.943-.618 0-1.236-.176-1.677-.53-.53-.353-.794-.883-.882-1.677h1.676c0 .265.175.44.352.618.177.176.353.265.706.265.53 0 .97-.266 1.147-.884.088-.352.177-.794.265-1.5l-.44.44c-.354.177-.707.266-1.148.266-.706 0-1.236-.265-1.765-.706-.53-.44-.794-1.147-.794-2.03-.265-.793 0-1.5.53-2.117zm2.734 3.353c.353-.265.53-.618.53-1.236 0-.44-.088-.882-.353-1.147s-.53-.44-.882-.44c-.265 0-.53.087-.706.263-.353.265-.44.706-.44 1.236s.087.882.264 1.146c.176.265.53.353.97.353.264 0 .44 0 .617-.177zm9.178 2.47h-.97v1.853h-1.59v-1.853h-3.353v-1.41l3.09-5.12h1.852v5.296h.97v1.233zm-2.56-1.235v-3.618l-2.117 3.618h2.117zm4.325-4.59c.53-.53 1.235-.88 2.03-.88 1.323 0 2.117.53 2.647 1.675.265.618.44 1.5.44 2.56 0 1.058-.087 1.852-.35 2.558-.53 1.325-1.413 1.943-2.737 1.943-.618 0-1.236-.176-1.677-.53-.53-.353-.794-.883-.882-1.677h1.677c0 .265.177.44.353.618.177.176.353.265.706.265.53 0 .97-.266 1.147-.884.088-.352.177-.794.265-1.5l-.44.44c-.354.177-.707.266-1.148.266-.706 0-1.236-.265-1.765-.706-.53-.44-.794-1.147-.794-2.03-.265-.793 0-1.5.53-2.117zm2.823 3.355c.353-.265.53-.618.53-1.236 0-.44-.088-.882-.353-1.147s-.53-.44-.883-.44c-.265 0-.53.087-.706.263-.352.265-.44.706-.44 1.236s.088.882.265 1.146c.176.265.53.353.97.353.177 0 .442 0 .618-.177z"/></g><g><path fill="#D8EDDD" d="M-94.794-135.544h-10.236v-.705h2.824c.088 0 .176 0 .176-.175v-22.238c0-.088-.088-.177-.176-.177h-2.824v-.705h10.236c5.735 0 10.412 5.382 10.412 12-.088 6.62-4.676 12-10.412 12zm3.53-22.06c-.97-.883-2.118-1.148-3.53-1.148h-2.736c-.176 0-.265 0-.265.176v22.326c0 .088.088.088.265.088h2.736c1.41 0 2.56-.265 3.53-1.147 1.588-1.5 2.206-3.882 2.206-10.06 0-5.558-.618-8.734-2.206-10.235zm29.12 22.06h-18.443c-.088 0-.088-.705 0-.705h2.824c.088 0 .177 0 .177-.175v-22.238c0-.088-.088-.177-.177-.177h-2.824c-.088 0-.088-.705 0-.705h16.854c.176 0 .176.088.176.088v6.883h-.618c0-3.177-1.677-6.354-5.648-6.354H-73c-.176 0-.264 0-.264.176v10.5h.882c2.56 0 3.97-1.852 3.97-4.235 0-.088.62-.088.62 0v9.09c0 .087-.62.087-.62 0 0-2.295-1.41-4.237-3.97-4.237h-.882v11.12c0 .087.088.175.265.175h3.266c5.295 0 7.236-3.53 7.236-6.97 0-.088.618-.088.618 0v7.59c-.175.176-.175.176-.264.176zm20.826 0h-17.737v-.705h2.912c.088 0 .176 0 .176-.175v-22.238c0-.088-.088-.177-.176-.177h-2.912v-.705h10.325c.088 0 .088.705 0 .705h-2.824c-.176 0-.176 0-.176.177v22.326c0 .088.088.176.176.176h2.736c4.854 0 6.883-3.884 6.883-7.326h.618v7.854c.175.088.087.088 0 .088zm15.53 0c-.087 0-.087-.705 0-.705h2.472c.088 0 .177 0 .177-.175v-11.207h-7.94v11.295c0 .088.087.176.264.176h2.47c.088 0 .088.704 0 .704h-9.972v-.705h2.824c.088 0 .177 0 .177-.177v-22.326c0-.088-.088-.177-.177-.177h-2.824v-.705h9.972c.088 0 .088.705 0 .705h-2.47c-.177 0-.265 0-.265.177v10.325h7.94v-10.325c0-.088-.087-.177-.176-.177h-2.47c-.09 0-.09-.705 0-.705h9.97c.09 0 .09.705 0 .705h-2.823c-.176 0-.176 0-.176.177v22.326c0 .088 0 .176.177.176h2.825c.088 0 .088.704 0 .704h-9.972v-.088zm13.414 0v-.705h2.823c.087 0 .176 0 .176-.175v-22.238c0-.088-.088-.177-.177-.177h-2.824v-.705H-2.05c.088 0 .088.705 0 .705h-2.824c-.177 0-.177 0-.177.177v22.326c0 .088.087.176.176.176h2.824c.088 0 .088.704 0 .704h-10.325v-.088zm30.532-9.795c-1.323 0-2.118-.175-3-.44v9.354c0 .088.088.176.177.176h2.823c.088 0 .088.705 0 .705H7.834v-.705h2.912c.088 0 .177 0 .177-.176v-22.238c0-.088-.088-.177-.177-.177H7.834v-.706h9.53c5.735 0 8.824 3.265 8.824 7.324.09 4.236-3 6.883-8.03 6.883zm-.706-13.5h-2.03c-.176 0-.176 0-.176.177v12.09c.97.44 1.59.53 3 .53 3 0 3.883-1.236 3.883-6.09-.09-4.854-1.678-6.707-4.678-6.707zm30.532 0c-.088 0-.177 0-.177.177v16.06c0 4.678-2.295 7.678-7.677 7.678-4.765 0-8.207-2.294-8.207-7.324v-16.413c0-.088-.088-.177-.177-.177h-2.824c-.088 0-.088-.705 0-.705H39.16c.088 0 .088.705 0 .705h-2.824c-.177 0-.265 0-.265.177v16.325c0 4.236 1.413 6.354 4.854 6.354 4.325 0 6.265-2.736 6.265-6.707v-15.973c0-.088-.09-.177-.178-.177H44.19c-.088 0-.088-.705 0-.705h6.618c.088 0 .088.705 0 .705h-2.824zm16.237 23.296H53.368c-.088 0-.088-.705 0-.705h2.824c.09 0 .177 0 .177-.175v-22.238c0-.088-.088-.177-.176-.177h-2.823c-.088 0-.088-.705 0-.705h9.354c4.06 0 7.413 1.764 7.413 5.56 0 3.265-3.088 5.647-5.648 5.647 3.795 0 7.236 2.383 7.236 6.442-.086 3.264-2.47 6.352-7.5 6.352zm-2.028-23.296h-1.236c-.176 0-.265 0-.265.177v10.06h2.56c2.294 0 3-.97 3-5.206 0-3.97-.97-5.03-4.058-5.03zm.706 10.854h-2.206v11.648c0 .088.088.176.265.176h2.47c3 0 4.148-1.06 4.148-5.47-.09-5.472-1.5-6.354-4.677-6.354zm30.18 12.442H75.34v-.705h2.912c.088 0 .176 0 .176-.175v-22.238c0-.088-.088-.177-.176-.177H75.34v-.705h10.325c.088 0 .088.705 0 .705H82.84c-.176 0-.176 0-.176.177v22.326c0 .088.088.176.177.176h2.736c4.853 0 6.883-3.884 6.883-7.326h.617v7.854c.088.088.088.088 0 .088zm2.91 0v-.705h2.825c.088 0 .177 0 .177-.175v-22.238c0-.088-.088-.177-.177-.177H95.99v-.705h10.324c.088 0 .088.705 0 .705h-2.824c-.176 0-.176 0-.176.177v22.326c0 .088.088.176.176.176h2.824c.088 0 .088.704 0 .704H95.99v-.088zm31.77.53c-.09-.44-.53-.97-1.413-.97-1.41 0-3.794 1.058-5.56 1.058-6.087 0-10.588-5.824-10.588-12.53 0-6.707 4.324-12.53 10.412-12.53 1.588 0 3.53.882 5.03.882.882 0 1.588-.44 1.588-.794 0-.088.618-.088.618 0v7.854c0 .088-.618.088-.618 0 0-3.353-3.44-7.236-6.62-7.236-1.41 0-2.558.264-3.617 1.235-1.5 1.59-2.205 4.942-2.205 10.678 0 5.736.706 9.09 2.206 10.678.972.97 2.296 1.236 3.795 1.236 3.883 0 7.06-3.794 7.06-8.206 0-.088.618-.088.618 0v8.824c-.09-.178-.706-.178-.706-.178zm19.06.088c-2.384 0-4.06-1.41-5.207-1.41-.882 0-1.676.704-1.764 1.322 0 .088-.618.088-.618 0v-8.03c0-.088.618-.088.618 0 0 2.735 2.824 7.5 6.883 7.5 3.705 0 5.382-2.206 5.382-4.412 0-3.265-1.942-3.883-6.883-5.735-3-1.148-5.384-2.825-5.384-6.884 0-4.147 2.912-7.412 6.09-7.412 2.117 0 2.47.882 3.882.882.97 0 1.324-.44 1.324-.794 0-.088.618-.088.618 0v6.177c0 .087-.618.087-.618 0 0-3.178-2.383-5.648-5.206-5.648-2.56 0-4.147 1.764-4.147 4.06 0 2.47 1.764 3.617 5.735 5.205 4.147 1.588 6.706 3.177 6.706 7.236.088 3.53-2.383 7.94-7.413 7.94zm28.59-.088c-.088-.44-.53-.97-1.412-.97-1.412 0-3.794 1.058-5.56 1.058-6.087 0-10.588-5.824-10.588-12.53 0-6.707 4.324-12.53 10.412-12.53 1.59 0 3.53.882 5.03.882.883 0 1.59-.44 1.59-.794 0-.088.617-.088.617 0v7.854c0 .088-.618.088-.618 0 0-3.353-3.442-7.236-6.62-7.236-1.41 0-2.558.264-3.617 1.235-1.5 1.59-2.206 4.942-2.206 10.678 0 5.736.705 9.09 2.206 10.678.97.97 2.295 1.236 3.794 1.236 3.883 0 7.06-3.794 7.06-8.206 0-.088.618-.088.618 0v8.824c-.09-.178-.707-.178-.707-.178zm16.855-.53c-.088 0-.088-.705 0-.705h2.47c.09 0 .177 0 .177-.175v-11.207h-7.942v11.295c0 .088.088.176.265.176h2.47c.09 0 .09.704 0 .704h-9.97v-.705h2.823c.088 0 .176 0 .176-.177v-22.326c0-.088-.088-.177-.176-.177h-2.824v-.705h9.972c.088 0 .088.705 0 .705h-2.47c-.177 0-.266 0-.266.177v10.325h7.942v-10.325c0-.088-.088-.177-.176-.177h-2.47c-.09 0-.09-.705 0-.705h9.97c.09 0 .09.705 0 .705h-2.823c-.176 0-.176 0-.176.177v22.326c0 .088 0 .176.177.176h2.825c.088 0 .088.704 0 .704h-9.972v-.088zm24.267.618c-5.736 0-10.413-5.647-10.413-12.53 0-6.707 4.324-12.53 10.413-12.53 5.736 0 10.413 5.647 10.413 12.53-.09 6.883-4.677 12.53-10.413 12.53zm3.53-23.208c-.972-.97-2.207-1.235-3.62-1.235-1.41 0-2.558.265-3.53 1.236-1.588 1.59-2.205 4.942-2.205 10.678 0 6.53.706 9.09 2.206 10.678.97.97 2.118 1.235 3.53 1.235 1.413 0 2.648-.264 3.62-1.235 1.5-1.59 2.205-4.06 2.205-10.678 0-5.737-.705-9.09-2.206-10.678zm21.443 23.208c-5.736 0-10.413-5.647-10.413-12.53 0-6.707 4.324-12.53 10.413-12.53 5.735 0 10.412 5.647 10.412 12.53s-4.588 12.53-10.412 12.53zm3.618-23.208c-.97-.97-2.205-1.235-3.617-1.235s-2.56.265-3.53 1.236c-1.588 1.59-2.206 4.942-2.206 10.678 0 6.53.706 9.09 2.206 10.678.97.97 2.118 1.235 3.53 1.235 1.41 0 2.647-.264 3.618-1.235 1.5-1.59 2.207-4.06 2.207-10.678 0-5.737-.706-9.09-2.206-10.678zm28.327 22.59H255.71v-.705h2.912c.088 0 .176 0 .176-.175v-22.238c0-.088-.088-.177-.176-.177h-2.912v-.705h10.324c.088 0 .088.705 0 .705h-2.824c-.177 0-.177 0-.177.177v22.326c0 .088.088.176.177.176h2.735c4.853 0 6.883-3.884 6.883-7.326h.618v7.854c.178.088.09.088 0 .088z"/></g><g><linearGradient id="a" gradientUnits="userSpaceOnUse" x1="18.838" y1="211.104" x2="159.763" y2="211.104" gradientTransform="rotate(180 26.396 47.487)"><stop offset="0" stop-color="#FFF"/><stop offset="1" stop-color="#FFF" stop-opacity="0"/></linearGradient><path fill="url(#a)" d="M-106.972-117.1H33.953v1.94h-140.925z"/><linearGradient id="b" gradientUnits="userSpaceOnUse" x1="54.825" y1="211.104" x2="195.75" y2="211.104" gradientTransform="matrix(1 0 0 -1 77.035 94.974)"><stop offset="0" stop-color="#FFF"/><stop offset="1" stop-color="#FFF" stop-opacity="0"/></linearGradient><path fill="url(#b)" d="M131.86-117.1h140.925v1.94H131.86z"/><g fill="#FFF"><path d="M53.956-111.714H51.17l-3.533-4.88c-.262.01-.475.015-.64.015-.066 0-.138 0-.215-.003-.077-.002-.156-.006-.238-.01v3.03c0 .658.07 1.066.215 1.226.194.226.486.338.877.338h.408v.286h-4.473V-112h.392c.442 0 .757-.143.946-.43.108-.16.162-.536.162-1.132v-6.743c0-.656-.072-1.064-.216-1.224-.2-.225-.498-.338-.893-.338h-.392v-.285h3.804c1.108 0 1.926.08 2.45.243.527.16.974.46 1.34.893.368.434.552.95.552 1.55 0 .643-.21 1.2-.628 1.672-.418.472-1.066.806-1.943 1L51.3-113.8c.492.688.916 1.144 1.27 1.37.353.226.815.37 1.385.43v.286zm-7.412-5.366c.097 0 .182 0 .254.004.07.003.13.004.177.004.995 0 1.746-.216 2.252-.647.505-.43.758-.98.758-1.646 0-.65-.204-1.182-.612-1.59-.407-.408-.948-.612-1.62-.612-.298 0-.7.05-1.208.146v4.342zM60.897-121.582v4.126h2.294c.596 0 .993-.09 1.193-.27.268-.236.416-.65.447-1.247h.284v3.633h-.284c-.072-.508-.145-.834-.216-.978-.093-.18-.244-.32-.454-.423-.21-.104-.534-.155-.97-.155h-2.294v3.44c0 .463.02.743.062.844.04.1.112.18.215.237.104.06.298.09.586.09h1.768c.59 0 1.02-.042 1.286-.124.267-.082.523-.244.77-.485.318-.318.645-.798.978-1.44h.308l-.9 2.618h-8.044V-112h.37c.246 0 .48-.058.7-.176.164-.082.275-.205.335-.37.06-.163.09-.5.09-1.008v-6.78c0-.663-.067-1.07-.2-1.226-.186-.205-.493-.308-.925-.308h-.37v-.285h8.045l.115 2.286h-.3c-.107-.55-.227-.926-.357-1.13-.13-.206-.325-.363-.582-.47-.205-.078-.566-.116-1.085-.116h-2.863zM85.77-122.153v.285c-.27 0-.492.05-.66.146-.17.098-.332.28-.486.546-.103.18-.265.608-.484 1.286l-2.91 8.413h-.308l-2.38-6.674-2.362 6.673h-.277l-3.102-8.667c-.23-.646-.377-1.03-.438-1.147-.103-.195-.242-.34-.42-.436-.176-.095-.416-.143-.72-.143v-.284h3.865v.285h-.185c-.272 0-.48.063-.624.186-.144.123-.216.272-.216.446 0 .18.113.593.34 1.24l2.055 5.857 1.73-4.98-.307-.88-.246-.7c-.107-.256-.23-.48-.362-.676-.066-.098-.148-.18-.246-.247-.128-.092-.257-.16-.385-.2-.097-.03-.25-.046-.46-.046v-.284h4.063v.285h-.277c-.287 0-.497.063-.63.186-.135.123-.2.29-.2.5 0 .263.114.72.346 1.37l2 5.674 1.987-5.75c.225-.637.338-1.078.338-1.324 0-.118-.038-.23-.112-.33-.074-.104-.168-.175-.28-.217-.195-.072-.45-.108-.763-.108v-.285h3.118zM95.144-115.21h-4.04l-.71 1.648c-.174.405-.262.708-.262.908 0 .16.076.3.228.42.15.12.48.2.98.234v.285h-3.286V-112c.437-.076.72-.177.847-.3.263-.246.553-.747.87-1.5l3.673-8.592h.27l3.632 8.683c.293.7.56 1.152.797 1.36.238.208.57.324.997.35v.285h-4.12V-112c.416-.02.697-.09.844-.207.146-.118.22-.262.22-.432 0-.225-.104-.58-.31-1.07l-.63-1.5zm-.216-.57l-1.77-4.218-1.817 4.22h3.588zM113.752-111.714h-2.786l-3.533-4.88c-.262.01-.475.015-.64.015-.066 0-.138 0-.215-.003-.077-.002-.156-.006-.238-.01v3.03c0 .658.07 1.066.215 1.226.195.226.487.338.878.338h.408v.286h-4.472V-112h.392c.44 0 .757-.143.946-.43.108-.16.162-.536.162-1.132v-6.743c0-.656-.072-1.064-.216-1.224-.2-.225-.498-.338-.893-.338h-.393v-.285h3.803c1.108 0 1.926.08 2.45.243.527.16.974.46 1.34.893s.552.95.552 1.55c0 .643-.21 1.2-.628 1.672-.418.472-1.066.806-1.943 1l2.156 2.995c.492.688.916 1.144 1.27 1.37.354.226.816.37 1.386.43v.286zm-7.412-5.366c.097 0 .182 0 .254.004.07.003.13.004.177.004.996 0 1.747-.216 2.253-.647.505-.43.758-.98.758-1.646 0-.65-.203-1.182-.61-1.59-.408-.408-.95-.612-1.62-.612-.3 0-.7.05-1.21.146v4.342zM122.263-112v.286h-4.473V-112h.37c.43 0 .743-.124.938-.376.123-.164.185-.56.185-1.186v-6.743c0-.528-.033-.877-.1-1.047-.052-.128-.157-.238-.315-.33-.227-.124-.462-.186-.71-.186h-.368v-.285h4.473v.285h-.378c-.426 0-.736.126-.93.377-.13.164-.193.56-.193 1.185v6.743c0 .53.033.878.1 1.047.052.13.16.24.323.33.22.124.454.186.7.186h.378z"/></g></g></svg>